<svg xmlns="http://www.w3.org/2000/svg" width="400" height="400" fill="none" viewBox="0 0 400 400">
  <!-- Background rectangle -->
  <path fill="#93C5FD"
    d="M316.667 0H83.3333C37.3096 0 0 37.3096 0 83.3333V316.667C0 362.69 37.3096 400 83.3333 400H316.667C362.69 400 400 362.69 400 316.667V83.3333C400 37.3096 362.69 0 316.667 0Z" />

  <!-- Letter "B" -->
  <path fill="#1D4ED8"
    d="M143.333 66.6667H256C273.193 66.6667 286 79.4737 286 96.6667V149.333C286 166.527 273.193 179.333 256 179.333H143.333C126.14 179.333 113.333 166.527 113.333 149.333V96.6667C113.333 79.4737 126.14 66.6667 143.333 66.6667ZM143.333 220H256C273.193 220 286 232.807 286 250V302.667C286 319.86 273.193 332.667 256 332.667H143.333C126.14 332.667 113.333 319.86 113.333 302.667V250C113.333 232.807 126.14 220 143.333 220Z" />
</svg>